<svg version="1.1" id="Layer_1" xmlns="http://www.w3.org/2000/svg" xmlns:xlink="http://www.w3.org/1999/xlink" x="0px" y="0px"
	 width="100%" viewBox="0 0 502 434" enable-background="new 0 0 502 434" xml:space="preserve">
<path fill="#293280" opacity="1.000000" stroke="none" 
	d="
M503.000000,217.000000 
	C503.000000,217.000000 503.000000,217.500000 502.834351,217.907898 
	C502.668732,218.315796 502.253571,218.123199 501.768616,218.086624 
	C474.644989,217.689957 448.006348,217.329865 421.284729,216.509247 
	C421.201752,191.130005 421.201752,166.211288 421.201752,141.337479 
	C411.136780,141.337479 401.735687,141.337479 392.249969,141.337479 
	C384.409607,167.291245 376.656097,192.957520 368.640961,219.489822 
	C367.876160,216.934601 367.401398,215.345947 366.925140,213.757751 
	C360.002747,190.674240 353.105896,167.582962 346.091034,144.527618 
	C345.688446,143.204391 344.352142,141.188171 343.402130,141.160660 
	C334.481659,140.902298 325.550629,141.007263 316.279510,141.007263 
	C316.279510,143.614288 316.285126,145.585800 316.278687,147.557281 
	C316.204254,170.379211 316.127960,193.201141 315.580261,216.027252 
	C305.338348,216.061401 295.568329,216.091400 285.477478,216.016327 
	C277.433319,211.875092 269.710022,207.838913 261.999695,203.441315 
	C262.653748,201.580978 263.165375,200.009583 263.957123,198.594955 
	C268.949249,189.675385 274.003540,180.790604 279.362701,171.980972 
	C280.639160,171.978073 282.032715,172.261841 282.472321,171.740784 
	C286.523773,166.938812 290.410217,161.997604 294.444366,156.972763 
	C293.120178,155.538483 292.021667,154.348618 290.973022,152.792877 
	C303.666809,130.470688 316.293823,108.504616 328.959839,86.561073 
	C339.311890,68.626404 349.658386,50.688171 360.108765,32.810814 
	C365.951599,22.815535 372.001007,12.941015 378.249207,3.193637 
	C418.920349,73.011467 459.296600,142.649506 499.697266,212.273376 
	C500.658539,213.929947 501.892975,215.428009 503.000000,217.000000 
z"/>
<path fill="#FEFEFE" opacity="1.000000" stroke="none" 
	d="
M502.253601,218.123199 
	C502.253571,218.123199 502.668732,218.315796 502.834351,218.157898 
	C503.000000,225.354248 503.000000,232.708496 502.668091,240.574646 
	C500.928497,243.378677 499.520782,245.670822 497.908722,248.295654 
	C500.115570,248.167511 501.557800,248.083755 503.000000,248.000000 
	C503.000000,257.687561 503.000000,267.375122 502.541687,277.532104 
	C498.718170,278.004456 495.352966,278.007355 491.990601,277.541382 
	C491.993408,271.876465 491.993408,266.680420 491.993408,261.484406 
	C491.481049,261.350983 490.968689,261.217590 490.456329,261.084167 
	C487.325867,266.269012 484.195404,271.453827 480.250397,277.987793 
	C485.220184,277.987793 488.615234,277.987793 492.007782,278.457214 
	C492.000488,288.621429 491.995667,298.316223 491.995422,308.005493 
	C492.000000,308.000000 492.011017,307.990875 491.541290,307.995026 
	C484.285461,308.000275 477.499329,308.001526 470.713226,308.002411 
	C461.651550,308.003571 461.760406,308.000854 461.966858,316.659851 
	C462.136414,323.772980 462.006958,330.893311 461.543518,338.007629 
	C456.355072,337.346161 451.189056,339.500732 446.604584,336.411438 
	C444.262024,340.318665 441.162231,344.666443 438.929077,349.421204 
	C436.122681,355.396423 430.161194,360.290131 431.697937,367.974243 
	C430.256073,367.958099 428.402069,367.554230 428.103973,368.062683 
	C422.308655,377.946625 416.694977,387.937042 410.996735,397.989075 
	C418.441620,397.989075 425.225800,397.989075 432.007538,398.458435 
	C432.000366,408.622192 431.995605,418.316589 431.995422,428.005493 
	C432.000000,428.000000 432.011017,427.990875 431.541290,427.995056 
	C421.376678,428.002838 411.681793,428.006439 401.989624,427.549988 
	C401.992340,423.540894 401.992340,419.991852 401.992340,416.442780 
	C401.474487,416.322144 400.956635,416.201538 400.438751,416.080902 
	C398.380524,419.636475 396.322266,423.192017 393.760071,427.618195 
	C397.188385,427.771423 399.599213,427.879181 402.007690,428.425293 
	C402.003571,430.909119 402.001801,432.954559 402.000000,435.000000 
	C306.645782,435.000000 211.291550,435.000000 115.439850,434.644470 
	C113.298119,431.521881 111.653847,428.754852 109.951393,425.840210 
	C109.797554,425.643433 109.701904,425.594208 109.606247,425.544983 
	C109.732956,425.700317 109.859673,425.855682 109.902328,426.395569 
	C107.208527,427.183716 104.598770,427.587280 101.994568,427.995422 
	C102.000114,428.000000 102.009163,428.011017 102.004921,427.547363 
	C102.000084,424.260010 101.358513,421.242828 102.139786,418.655182 
	C103.527451,414.059082 101.862190,410.602081 99.461746,407.090179 
	C98.579720,405.799774 97.652023,404.485168 97.081650,403.048096 
	C95.681488,399.520386 93.255211,397.891602 89.429611,397.971924 
	C83.618652,398.093872 77.803329,398.007904 71.992310,397.540955 
	C71.995453,388.791321 71.876747,380.508423 72.056770,372.231995 
	C72.126831,369.011017 71.110504,367.869507 67.823044,367.940979 
	C59.215530,368.128143 50.601337,368.007874 41.992271,367.540894 
	C41.999439,357.377533 42.004143,347.683441 42.003967,337.995300 
	C41.999088,338.001221 41.989094,338.009216 42.457649,338.004456 
	C48.010387,337.999695 53.094570,337.999695 59.278645,337.999695 
	C55.055557,330.752625 51.436108,324.295319 47.553734,318.000153 
	C45.999992,315.480835 43.867100,313.318634 41.995110,310.764893 
	C41.992390,310.535919 41.984707,310.078003 42.175819,309.969482 
	C42.203671,309.568390 42.040413,309.275879 41.691555,308.890930 
	C41.273956,308.631744 41.108540,308.414337 41.002983,307.825562 
	C35.000053,296.999969 29.003847,286.495117 22.950281,275.842834 
	C22.798332,275.645630 22.703743,275.595795 22.609152,275.545990 
	C22.735868,275.700195 22.862583,275.854370 22.900974,276.401123 
	C19.204777,277.192749 15.596903,277.591766 11.994604,277.995392 
	C12.000179,278.000000 12.009168,278.010986 12.004832,277.541565 
	C12.016732,271.613678 11.727705,266.132843 12.124987,260.702240 
	C12.644101,253.606171 8.098669,248.131622 1.000000,248.000000 
	C1.000000,230.979111 1.000000,213.958206 1.346759,196.439331 
	C3.410091,193.571045 5.126665,191.200729 7.444629,188.000000 
	C4.305228,188.000000 2.652614,188.000000 1.000000,188.000000 
	C1.000000,178.312439 1.000000,168.624878 1.458332,158.467834 
	C5.281926,157.995499 8.647187,157.992615 12.009602,158.458771 
	C12.006755,164.239288 12.006755,169.550766 12.006755,174.862259 
	C12.747837,175.052246 13.488918,175.242233 14.230000,175.432236 
	C17.508266,169.919708 20.786531,164.407181 24.589449,158.012436 
	C19.548012,158.012436 15.768874,158.012436 11.992226,157.542999 
	C11.999528,147.378723 12.004341,137.683868 12.004741,127.994675 
	C12.000327,128.000336 11.989001,128.009155 12.458740,128.004944 
	C22.387257,128.000748 31.846033,128.000748 41.989868,128.000748 
	C41.989868,118.653442 41.989868,108.321495 42.457634,97.992386 
	C46.074253,97.995934 49.355865,97.424782 52.343842,98.118462 
	C58.247303,99.488983 61.091309,96.530113 63.080162,91.776329 
	C66.350082,83.960518 74.172638,77.846642 72.395996,67.991989 
	C74.597481,67.200325 76.754250,66.784966 78.091515,65.510025 
	C79.578896,64.091965 80.314621,61.887897 81.386482,60.031158 
	C85.481339,52.937840 89.579765,45.846584 94.106415,38.011002 
	C86.108650,38.011002 79.049362,38.011002 71.992462,37.541660 
	C71.999611,27.377880 72.004379,17.683441 72.004730,7.994656 
	C72.000305,8.000311 71.989006,8.009154 72.458740,8.004978 
	C82.623383,7.997190 92.318283,7.993580 102.010475,8.456485 
	C102.007767,13.362962 102.007767,17.802925 102.007767,22.242887 
	C102.418083,22.293922 102.828392,22.344957 103.238708,22.395994 
	C105.736137,17.831881 108.233566,13.267768 111.108803,8.013196 
	C107.524704,8.013196 104.757339,8.013196 101.992310,7.574808 
	C101.996429,5.090947 101.998215,3.045473 102.000000,1.000000 
	C197.687561,1.000000 293.375122,1.000000 389.560181,1.355514 
	C391.701935,4.478089 393.346191,7.245150 395.048645,10.159790 
	C395.202454,10.356579 395.298096,10.405787 395.393738,10.454995 
	C395.267029,10.299665 395.140289,10.144338 395.094910,9.607805 
	C397.454498,8.820785 399.732758,8.414970 402.005493,8.004661 
	C402.000000,8.000166 401.990845,7.989010 401.995117,8.450311 
	C402.806122,15.042093 399.615326,21.656654 404.558105,27.330019 
	C406.306763,29.337189 406.950745,32.338482 408.772736,34.240677 
	C410.411499,35.951611 412.896118,37.625511 415.142334,37.828976 
	C420.723969,38.334568 426.382477,37.991779 432.007690,38.459000 
	C432.004578,47.208633 432.123352,55.491566 431.943268,63.768002 
	C431.873169,66.989067 432.889557,68.130531 436.176910,68.059067 
	C444.784454,67.871956 453.398651,67.992157 462.007751,68.459145 
	C462.006958,78.622986 462.008636,88.317535 461.542664,98.009201 
	C456.330597,98.006310 451.586151,98.006310 445.702179,98.006310 
	C450.892914,106.892586 455.595459,114.943062 460.297974,122.993546 
	C460.861298,122.832260 461.424591,122.670975 461.987915,122.509689 
	C461.987915,114.336342 461.987915,106.162987 462.457336,97.992157 
	C472.621521,97.999496 482.316254,98.004318 492.005493,98.004639 
	C492.000000,98.000137 491.990875,97.989006 491.995056,98.458740 
	C491.996521,108.622520 491.993866,118.316566 491.996033,128.004639 
	C492.000854,127.998688 492.010956,127.990807 491.541229,127.995300 
	C482.196594,127.999794 473.321655,127.999794 462.973969,127.999794 
	C469.807678,139.501694 475.899994,149.755722 482.049713,160.157135 
	C482.201721,160.354309 482.296295,160.404099 482.390900,160.453903 
	C482.264099,160.299744 482.137329,160.145569 482.097717,159.600952 
	C485.460236,158.810059 488.735596,158.409622 492.005493,158.004593 
	C492.000000,158.000015 491.990814,157.989029 491.995239,158.458054 
	C491.864410,164.561417 491.704285,170.195297 491.601440,175.830231 
	C491.511383,180.763794 498.006439,187.663971 503.000000,188.000000 
	C503.000000,197.354233 503.000000,206.708450 503.000000,216.531342 
	C501.892975,215.428009 500.658539,213.929947 499.697266,212.273376 
	C459.296600,142.649506 418.920349,73.011467 378.044800,2.813677 
	C376.888763,2.182439 376.228973,2.051714 375.569183,2.051635 
	C293.949799,2.041822 212.330383,2.072369 130.711243,1.935231 
	C127.233871,1.929389 126.241760,3.768062 124.886131,6.107331 
	C84.720879,75.416191 44.538563,144.715210 4.264468,213.960831 
	C2.584940,216.848541 2.461761,218.955673 4.184628,221.912903 
	C32.319946,270.206024 60.304218,318.587128 88.377762,366.916290 
	C101.193260,388.978455 114.128761,410.970886 127.227119,433.367188 
	C127.940636,433.787140 128.436859,433.876770 128.933090,433.876801 
	C210.577347,433.883942 292.221649,433.856323 373.865723,433.985931 
	C377.236206,433.991272 378.413666,432.320984 379.779785,429.961273 
	C410.164368,377.476440 440.601074,325.021759 470.985809,272.537018 
	C481.466736,254.432846 491.834259,236.263031 502.253601,218.123199 
M11.689726,179.093140 
	C11.795569,179.063965 11.901412,179.034790 12.296764,178.887115 
	C12.195673,178.922058 12.094581,178.957001 11.689726,179.093140 
M445.395355,96.488396 
	C445.395355,96.488396 445.521484,96.406860 445.395355,96.488396 
M13.349508,176.476776 
	C13.349508,176.476776 13.542784,176.581146 13.542784,176.581146 
	C13.542784,176.581146 13.510697,176.365784 13.349508,176.476776 
M59.484230,339.597687 
	C59.484230,339.597687 59.407532,339.469025 59.484230,339.597687 
M409.528778,400.374847 
	C409.528778,400.374847 409.426483,400.556122 409.426483,400.556122 
	C409.426483,400.556122 409.634827,400.528992 409.528778,400.374847 
M496.638336,250.524033 
	C496.638336,250.524033 496.453918,250.422623 496.453918,250.422623 
	C496.453918,250.422623 496.483063,250.628693 496.638336,250.524033 
z"/>
<path fill="#FFFFFF" opacity="1.000000" stroke="none" 
	d="
M503.000000,308.000000 
	C503.000000,317.687561 503.000000,327.375122 502.541718,337.531342 
	C498.718842,338.003448 495.354248,338.006927 491.993469,337.540649 
	C492.001862,327.377533 492.006439,317.684204 492.011017,307.990875 
	C492.011017,307.990875 492.000000,308.000000 492.454498,308.001495 
	C496.272675,308.001984 499.636322,308.001007 503.000000,308.000000 
z"/>
<path fill="#E5E5E5" opacity="1.000000" stroke="none" 
	d="
M1.000000,338.000000 
	C1.000000,328.312439 1.000000,318.624878 1.458289,308.468658 
	C5.281173,307.996552 8.645768,307.993073 12.006530,308.459351 
	C11.998175,318.623047 11.993652,328.316956 11.993976,338.005981 
	C11.998821,338.001099 12.010383,337.989563 11.551674,337.992920 
	C7.728643,337.997498 4.364321,337.998749 1.000000,338.000000 
z"/>
<path fill="#E5E5E5" opacity="1.000000" stroke="none" 
	d="
M503.000000,307.531342 
	C499.636322,308.001007 496.272675,308.001984 492.449951,308.007019 
	C491.995667,298.316223 492.000488,288.621429 492.002655,278.463318 
	C492.000000,278.000000 491.987793,278.010254 491.987793,278.010254 
	C495.352966,278.007355 498.718170,278.004456 502.541687,278.000793 
	C503.000000,287.687561 503.000000,297.375122 503.000000,307.531342 
z"/>
<path fill="#FFFFFF" opacity="1.000000" stroke="none" 
	d="
M12.010364,307.989594 
	C8.645768,307.993073 5.281173,307.996552 1.458289,308.000000 
	C1.000000,298.312439 1.000000,288.624878 1.458144,278.468689 
	C5.280582,278.003693 8.644875,278.007355 12.009168,278.010986 
	C12.009168,278.010986 12.000179,278.000000 11.998966,278.465027 
	C11.994867,288.623688 11.991982,298.317291 11.993952,308.006012 
	C11.998808,308.001129 12.010364,307.989594 12.010364,307.989594 
z"/>
<path fill="#FFFFFF" opacity="1.000000" stroke="none" 
	d="
M1.000000,338.468658 
	C4.364321,337.998749 7.728643,337.997498 11.547837,338.462708 
	C12.005267,348.622894 12.007825,358.316681 11.551674,368.007111 
	C7.728643,368.002533 4.364321,368.001282 1.000000,368.000000 
	C1.000000,358.312439 1.000000,348.624878 1.000000,338.468658 
z"/>
<path fill="#E5E5E5" opacity="1.000000" stroke="none" 
	d="
M491.989655,338.010406 
	C495.354248,338.006927 498.718842,338.003448 502.541718,338.000000 
	C503.000000,347.687561 503.000000,357.375122 502.541718,367.531342 
	C498.718842,368.003479 495.354218,368.006958 491.993408,367.540649 
	C492.001770,357.376953 492.006317,347.683044 492.005981,337.994019 
	C492.001129,337.998871 491.989655,338.010406 491.989655,338.010406 
z"/>
<path fill="#E5E5E5" opacity="1.000000" stroke="none" 
	d="
M1.000000,38.000000 
	C1.000000,28.312439 1.000000,18.624876 1.458160,8.468657 
	C5.281170,8.003624 8.646022,8.007248 12.005436,8.005436 
	C12.000000,8.000000 11.989130,7.989129 11.993153,8.458954 
	C12.001572,18.622663 12.005968,28.316545 11.551657,38.007095 
	C7.728632,38.002510 4.364316,38.001255 1.000000,38.000000 
z"/>
<path fill="#FFFFFF" opacity="1.000000" stroke="none" 
	d="
M491.989624,368.010406 
	C495.354218,368.006958 498.718842,368.003479 502.541718,368.000000 
	C503.000000,377.687561 503.000000,387.375122 502.541718,397.531342 
	C498.718842,398.003479 495.354218,398.006927 491.993439,397.540649 
	C492.001801,387.376953 492.006348,377.683044 492.005981,367.994019 
	C492.001129,367.998871 491.989624,368.010406 491.989624,368.010406 
z"/>
<path fill="#FFFFFF" opacity="1.000000" stroke="none" 
	d="
M1.000000,428.000000 
	C1.000000,418.312439 1.000000,408.624878 1.458289,398.468658 
	C5.281180,397.996521 8.645782,397.993042 12.006546,398.459351 
	C11.998183,408.623047 11.993657,418.316956 11.994040,428.005859 
	C11.998950,428.000854 12.008778,427.991241 11.550316,427.994629 
	C7.727902,427.998688 4.363951,427.999329 1.000000,428.000000 
z"/>
<path fill="#E5E5E5" opacity="1.000000" stroke="none" 
	d="
M12.010383,397.989563 
	C8.645782,397.993042 5.281180,397.996521 1.458289,398.000000 
	C1.000000,388.312439 1.000000,378.624878 1.000000,368.468689 
	C4.364321,368.001282 7.728643,368.002533 11.545893,368.001343 
	C11.998821,367.998901 11.989130,367.989136 11.993153,368.458984 
	C11.994493,378.622833 11.991812,388.316833 11.993976,398.005981 
	C11.998821,398.001099 12.010383,397.989563 12.010383,397.989563 
z"/>
<path fill="#E5E5E5" opacity="1.000000" stroke="none" 
	d="
M503.000000,38.000000 
	C503.000000,47.687561 503.000000,57.375122 502.541718,67.531342 
	C498.718842,67.996521 495.354218,67.993034 491.995361,67.995369 
	C492.001099,68.001190 492.010864,68.010880 492.006836,67.541054 
	C491.998444,57.377342 491.994049,47.683456 492.448364,37.992905 
	C496.271393,37.997490 499.635681,37.998745 503.000000,38.000000 
z"/>
<path fill="#E5E5E5" opacity="1.000000" stroke="none" 
	d="
M491.989624,398.010406 
	C495.354218,398.006927 498.718842,398.003479 502.541718,398.000000 
	C503.000000,407.687561 503.000000,417.375122 502.541840,427.531342 
	C498.718842,427.996368 495.353973,427.992767 491.994568,427.994568 
	C492.000000,428.000000 492.010864,428.010864 492.006836,427.541016 
	C492.005493,417.377167 492.008179,407.683167 492.005981,397.994019 
	C492.001129,397.998871 491.989624,398.010406 491.989624,398.010406 
z"/>
<path fill="#FFFFFF" opacity="1.000000" stroke="none" 
	d="
M491.989624,67.989548 
	C495.354218,67.993034 498.718842,67.996521 502.541718,68.000000 
	C503.000000,77.687561 503.000000,87.375122 502.541870,97.531342 
	C498.719421,97.996330 495.355164,97.992668 491.990875,97.988998 
	C491.990875,97.989006 492.000000,98.000137 492.001434,97.534996 
	C491.998444,87.376419 491.994019,77.682983 491.989624,67.989548 
z"/>
<path fill="#FFFFFF" opacity="1.000000" stroke="none" 
	d="
M1.000000,128.000000 
	C1.000000,118.312439 1.000000,108.624878 1.458290,98.468658 
	C5.281193,97.996513 8.645806,97.993027 12.006589,98.459328 
	C11.998173,108.622459 11.993587,118.315804 11.989001,128.009155 
	C11.989001,128.009155 12.000327,128.000336 11.545683,127.998718 
	C7.727360,127.998077 4.363680,127.999039 1.000000,128.000000 
z"/>
<path fill="#E5E5E5" opacity="1.000000" stroke="none" 
	d="
M491.995056,98.458740 
	C495.355164,97.992668 498.719421,97.996330 502.541870,98.000000 
	C503.000000,107.687561 503.000000,117.375122 502.541870,127.531342 
	C498.719543,128.003540 495.355377,128.007065 491.991211,128.010605 
	C491.993866,118.316566 491.996521,108.622520 491.995056,98.458740 
z"/>
<path fill="#E5E5E5" opacity="1.000000" stroke="none" 
	d="
M1.000000,128.468658 
	C4.363680,127.999039 7.727360,127.998077 11.550097,127.993057 
	C12.004341,137.683868 11.999528,147.378723 11.997228,157.536652 
	C11.999740,157.999725 12.012448,157.989746 12.012448,157.989746 
	C8.647187,157.992615 5.281926,157.995499 1.458332,157.999176 
	C1.000000,148.312439 1.000000,138.624878 1.000000,128.468658 
z"/>
<path fill="#FFFFFF" opacity="1.000000" stroke="none" 
	d="
M491.996033,128.004639 
	C495.355377,128.007065 498.719543,128.003540 502.541870,128.000000 
	C503.000000,137.687561 503.000000,147.375122 502.541870,157.531601 
	C498.719421,157.996689 495.355103,157.992859 491.990814,157.989029 
	C491.990814,157.989029 492.000000,158.000015 492.001099,157.534943 
	C492.005096,147.376846 492.008026,137.683823 492.010956,127.990807 
	C492.010956,127.990807 492.000854,127.998688 491.996033,128.004639 
z"/>
<path fill="#FFFFFF" opacity="1.000000" stroke="none" 
	d="
M1.000000,38.468658 
	C4.364316,38.001255 7.728632,38.002510 11.545843,38.001251 
	C11.998737,37.998734 11.989130,37.989136 11.993109,38.458858 
	C12.001513,48.622536 12.005939,58.316490 11.551655,68.007103 
	C7.728631,68.002510 4.364316,68.001251 1.000000,68.000000 
	C1.000000,58.312439 1.000000,48.624878 1.000000,38.468658 
z"/>
<path fill="#FFFFFF" opacity="1.000000" stroke="none" 
	d="
M503.000000,37.531342 
	C499.635681,37.998745 496.271393,37.997490 492.454163,37.998749 
	C492.001251,38.001266 492.010864,38.010860 492.006897,37.541138 
	C492.005554,27.377323 492.008209,17.683226 492.005859,7.994040 
	C492.000854,7.998950 491.991241,8.008777 492.449707,8.005379 
	C496.272095,8.001321 499.636047,8.000661 503.000000,8.000000 
	C503.000000,17.687561 503.000000,27.375122 503.000000,37.531342 
z"/>
<path fill="#E5E5E5" opacity="1.000000" stroke="none" 
	d="
M1.000000,68.468658 
	C4.364316,68.001251 7.728631,68.002510 11.545835,68.001266 
	C11.998722,67.998764 11.989130,67.989120 11.993110,68.458847 
	C11.994437,78.622681 11.991785,88.316795 11.993985,98.006027 
	C11.998837,98.001137 12.010420,97.989548 12.010420,97.989548 
	C8.645806,97.993027 5.281193,97.996513 1.458290,98.000000 
	C1.000000,88.312439 1.000000,78.624878 1.000000,68.468658 
z"/>
<path fill="#E5E5E5" opacity="1.000000" stroke="none" 
	d="
M12.004832,277.541595 
	C8.644875,278.007355 5.280582,278.003693 1.458144,278.000000 
	C1.000000,268.312439 1.000000,258.624878 1.000000,248.468658 
	C8.098669,248.131622 12.644101,253.606171 12.124987,260.702240 
	C11.727705,266.132843 12.016732,271.613678 12.004832,277.541595 
z"/>
<path fill="#E5E5E5" opacity="1.000000" stroke="none" 
	d="
M491.995239,158.458054 
	C495.355103,157.992859 498.719421,157.996689 502.541870,158.000259 
	C503.000000,167.687561 503.000000,177.375122 503.000000,187.531342 
	C498.006439,187.663971 491.511383,180.763794 491.601440,175.830231 
	C491.704285,170.195297 491.864410,164.561417 491.995239,158.458054 
z"/>
<path fill="#FFFFFF" opacity="1.000000" stroke="none" 
	d="
M462.000000,435.000000 
	C452.312439,435.000000 442.624878,435.000000 432.468628,434.562195 
	C432.003662,432.079865 432.007324,430.035370 432.010986,427.990875 
	C432.011017,427.990875 432.000000,428.000000 432.465088,428.001434 
	C442.623566,427.998444 452.316986,427.994019 462.007080,428.427826 
	C462.002533,430.910675 462.001251,432.955353 462.000000,435.000000 
z"/>
<path fill="#E5E5E5" opacity="1.000000" stroke="none" 
	d="
M12.000000,1.000000 
	C21.687561,1.000000 31.375122,1.000000 41.531342,1.438097 
	C41.996513,3.920925 41.993027,5.965655 41.995346,8.004621 
	C42.001152,7.998855 42.010864,7.989129 41.541142,7.993108 
	C31.377323,7.994434 21.683226,7.991782 11.989130,7.989129 
	C11.989130,7.989129 12.000000,8.000000 12.001463,7.566755 
	C12.001949,5.089007 12.000975,3.044503 12.000000,1.000000 
z"/>
<path fill="#FFFFFF" opacity="1.000000" stroke="none" 
	d="
M41.989536,8.010386 
	C41.993027,5.965655 41.996513,3.920925 42.000000,1.438097 
	C51.687561,1.000000 61.375122,1.000000 71.531342,1.437819 
	C71.996338,3.920143 71.992676,5.964649 71.989014,8.009154 
	C71.989006,8.009154 72.000305,8.000311 71.535080,7.998735 
	C61.376415,8.001569 51.682976,8.005978 41.989536,8.010386 
z"/>
<path fill="#E5E5E5" opacity="1.000000" stroke="none" 
	d="
M72.458748,8.004978 
	C71.992676,5.964649 71.996338,3.920143 72.000000,1.437819 
	C81.687561,1.000000 91.375122,1.000000 101.531342,1.000000 
	C101.998215,3.045473 101.996429,5.090947 101.997116,7.568022 
	C101.999596,7.999624 102.013184,7.989971 102.013184,7.989970 
	C92.318283,7.993580 82.623383,7.997190 72.458748,8.004978 
z"/>
<path fill="#FFFFFF" opacity="1.000000" stroke="none" 
	d="
M102.000000,435.000000 
	C92.312439,435.000000 82.624878,435.000000 72.468658,434.561890 
	C71.996529,432.079010 71.993057,430.034241 72.459366,427.993286 
	C82.622482,428.001709 92.315819,428.006348 102.009163,428.010986 
	C102.009163,428.011017 102.000114,428.000000 101.998619,428.433899 
	C101.998085,430.911896 101.999046,432.955933 102.000000,435.000000 
z"/>
<path fill="#FFFFFF" opacity="1.000000" stroke="none" 
	d="
M402.000000,1.000000 
	C411.687561,1.000000 421.375122,1.000000 431.531342,1.438108 
	C432.003479,3.921009 432.006927,5.965800 431.540588,8.006789 
	C421.377472,7.998328 411.684174,7.993669 401.990845,7.989010 
	C401.990845,7.989010 402.000000,8.000166 402.001465,7.566162 
	C402.001953,5.088106 402.000977,3.044053 402.000000,1.000000 
z"/>
<path fill="#E5E5E5" opacity="1.000000" stroke="none" 
	d="
M432.010376,8.010592 
	C432.006927,5.965800 432.003479,3.921009 432.000000,1.438108 
	C441.687561,1.000000 451.375122,1.000000 461.531311,1.438096 
	C461.996521,3.920915 461.993042,5.965640 461.995422,8.004549 
	C462.001251,7.998734 462.010864,7.989129 461.541138,7.993107 
	C451.377258,7.994444 441.683044,7.991802 431.993835,7.993988 
	C431.998840,7.998816 432.010376,8.010592 432.010376,8.010592 
z"/>
<path fill="#FFFFFF" opacity="1.000000" stroke="none" 
	d="
M461.989563,8.010364 
	C461.993042,5.965640 461.996521,3.920915 462.000000,1.438096 
	C471.687561,1.000000 481.375122,1.000000 491.531372,1.437743 
	C491.997101,3.919916 491.994171,5.964346 491.991272,8.008777 
	C491.991241,8.008777 492.000854,7.998950 491.536011,7.998061 
	C481.377319,8.001570 471.683472,8.005967 461.989563,8.010364 
z"/>
<path fill="#FFFFFF" opacity="1.000000" stroke="none" 
	d="
M42.000000,435.000000 
	C32.312439,435.000000 22.624876,435.000000 12.468657,434.562256 
	C12.002926,432.080078 12.005852,430.035675 12.008778,427.991241 
	C12.008778,427.991241 11.998950,428.000854 12.463865,428.001831 
	C22.622673,427.998413 32.316566,427.994019 42.007164,428.427795 
	C42.002579,430.910675 42.001289,432.955353 42.000000,435.000000 
z"/>
<path fill="#E5E5E5" opacity="1.000000" stroke="none" 
	d="
M462.468658,435.000000 
	C462.001251,432.955353 462.002533,430.910675 462.001343,428.433594 
	C461.998871,428.001129 461.989136,428.010864 462.458984,428.006836 
	C472.622833,428.005524 482.316833,428.008209 492.010864,428.010864 
	C492.010864,428.010864 492.000000,428.000000 491.998505,428.433258 
	C491.998016,430.911011 491.999023,432.955505 492.000000,435.000000 
	C482.312439,435.000000 472.624878,435.000000 462.468658,435.000000 
z"/>
<path fill="#E5E5E5" opacity="1.000000" stroke="none" 
	d="
M431.541260,427.995056 
	C432.007324,430.035370 432.003662,432.079865 432.000000,434.562195 
	C422.312439,435.000000 412.624878,435.000000 402.468689,435.000000 
	C402.001801,432.954559 402.003571,430.909119 402.002686,428.431824 
	C402.000000,428.000000 401.986908,428.010040 401.986908,428.010040 
	C411.681793,428.006439 421.376678,428.002838 431.541260,427.995056 
z"/>
<path fill="#E5E5E5" opacity="1.000000" stroke="none" 
	d="
M42.468658,435.000000 
	C42.001289,432.955353 42.002579,430.910675 42.001350,428.433563 
	C41.998833,428.001099 41.989140,428.010864 42.458862,428.006897 
	C52.622734,428.005554 62.316883,428.008209 72.006104,428.005981 
	C72.001167,428.001129 71.989586,427.989471 71.989586,427.989471 
	C71.993057,430.034241 71.996529,432.079010 72.000000,434.561890 
	C62.312439,435.000000 52.624878,435.000000 42.468658,435.000000 
z"/>
<path fill="#E5E5E5" opacity="1.000000" stroke="none" 
	d="
M102.463181,435.000000 
	C101.999046,432.955933 101.998085,430.911896 101.993073,428.429321 
	C104.598770,427.587280 107.208527,427.183716 109.908905,426.390259 
	C109.999519,426.000366 110.009590,425.987793 110.009583,425.987793 
	C111.653847,428.754852 113.298119,431.521881 114.971191,434.644470 
	C110.975456,435.000000 106.950912,435.000000 102.463181,435.000000 
z"/>
<path fill="#FFFFFF" opacity="1.000000" stroke="none" 
	d="
M492.482971,435.000000 
	C491.999023,432.955505 491.998016,430.911011 491.993073,428.427826 
	C495.353973,427.992767 498.718842,427.996368 502.541840,428.000000 
	C503.000000,430.271210 503.000000,432.542419 503.000000,435.000000 
	C499.656586,435.000000 496.311249,435.000000 492.482971,435.000000 
z"/>
<path fill="#E5E5E5" opacity="1.000000" stroke="none" 
	d="
M11.550316,427.994629 
	C12.005852,430.035675 12.002926,432.080078 12.000000,434.562256 
	C8.435851,435.000000 4.871702,435.000000 1.000000,435.000000 
	C1.000000,433.001343 1.000000,430.995331 1.000000,428.494629 
	C4.363951,427.999329 7.727902,427.998688 11.550316,427.994629 
z"/>
<path fill="#FFFFFF" opacity="1.000000" stroke="none" 
	d="
M11.517044,1.000000 
	C12.000975,3.044503 12.001949,5.089007 12.006899,7.572191 
	C8.646022,8.007248 5.281170,8.003624 1.458160,8.000000 
	C1.000000,5.728788 1.000000,3.457577 1.000000,1.000000 
	C4.343423,1.000000 7.688756,1.000000 11.517044,1.000000 
z"/>
<path fill="#E5E5E5" opacity="1.000000" stroke="none" 
	d="
M492.449707,8.005379 
	C491.994171,5.964346 491.997101,3.919916 492.000000,1.437743 
	C495.564148,1.000000 499.128296,1.000000 503.000000,1.000000 
	C503.000000,2.998654 503.000000,5.004683 503.000000,7.505356 
	C499.636047,8.000661 496.272095,8.001321 492.449707,8.005379 
z"/>
<path fill="#E5E5E5" opacity="1.000000" stroke="none" 
	d="
M401.539368,1.000000 
	C402.000977,3.044053 402.001953,5.088106 402.006989,7.570657 
	C399.732758,8.414970 397.454498,8.820785 395.088318,9.613116 
	C395.000397,9.999634 394.990448,10.012215 394.990448,10.012213 
	C393.346191,7.245150 391.701935,4.478089 390.028809,1.355514 
	C393.692902,1.000000 397.385834,1.000000 401.539368,1.000000 
z"/>
<path fill="#E3E3E3" opacity="1.000000" stroke="none" 
	d="
M1.000000,188.444168 
	C2.652614,188.000000 4.305228,188.000000 7.444629,188.000000 
	C5.126665,191.200729 3.410091,193.571045 1.346759,195.970673 
	C1.000000,193.629440 1.000000,191.258896 1.000000,188.444168 
z"/>
<path fill="#E4E4E4" opacity="1.000000" stroke="none" 
	d="
M503.000000,247.562500 
	C501.557800,248.083755 500.115570,248.167511 497.908722,248.295654 
	C499.520782,245.670822 500.928497,243.378677 502.668091,241.043274 
	C503.000000,243.041672 503.000000,245.083328 503.000000,247.562500 
z"/>
<path fill="#243D98" opacity="1.000000" stroke="none" 
	d="
M127.009827,432.994965 
	C114.128761,410.970886 101.193260,388.978455 88.377762,366.916290 
	C60.304218,318.587128 32.319946,270.206024 4.184628,221.912903 
	C2.461761,218.955673 2.584940,216.848541 4.264468,213.960831 
	C44.538563,144.715210 84.720879,75.416191 124.886131,6.107331 
	C126.241760,3.768062 127.233871,1.929389 130.711243,1.935231 
	C212.330383,2.072369 293.949799,2.041822 375.569183,2.051635 
	C376.228973,2.051714 376.888763,2.182439 377.752930,2.632125 
	C372.001007,12.941015 365.951599,22.815535 360.108765,32.810814 
	C349.658386,50.688171 339.311890,68.626404 328.959839,86.561073 
	C316.293823,108.504616 303.666809,130.470688 290.650085,152.678482 
	C289.070496,152.044266 287.912964,151.080627 286.649841,150.284485 
	C264.245148,136.163162 240.775848,133.220734 217.242126,146.320221 
	C191.040771,160.904556 190.496002,194.751511 215.552536,211.107971 
	C219.144852,213.452957 223.112625,215.261353 227.017136,217.080963 
	C233.630005,220.162735 240.331009,223.055374 246.962982,226.386154 
	C246.173599,228.397583 245.542023,230.122833 244.638367,231.691376 
	C238.780716,241.859055 232.863831,251.992599 226.595673,262.111542 
	C219.361206,258.285645 212.497406,254.485550 205.348328,250.527512 
	C200.830780,255.884964 195.980606,261.636871 190.267029,268.412689 
	C198.641129,273.420258 206.392288,278.055359 214.085495,283.069031 
	C210.637909,289.718231 207.404175,296.079163 203.833115,302.244659 
	C182.379166,339.285217 160.880127,376.299805 139.312546,413.274323 
	C135.410492,419.963867 131.120651,426.427185 127.009827,432.994965 
M79.300186,286.037415 
	C81.114395,286.037415 82.928604,286.037415 84.871727,286.037415 
	C88.690430,272.879211 92.431313,259.989166 96.154427,247.160339 
	C112.495117,247.160339 128.447037,247.160339 144.555801,247.160339 
	C147.989197,259.126709 151.321960,270.944000 154.838135,282.706421 
	C155.217773,283.976410 156.633087,285.853058 157.615250,285.882751 
	C166.007858,286.136169 174.411377,286.027985 183.304733,286.027985 
	C177.058228,266.835815 171.048264,248.362457 165.033066,229.890793 
	C155.820175,201.599518 146.633774,173.299515 137.307388,145.045715 
	C136.796371,143.497589 135.144577,141.215790 133.959869,141.175934 
	C124.498215,140.857712 115.021118,140.998276 105.499290,140.998276 
	C89.758011,189.385376 74.140518,237.391983 58.315201,286.037415 
	C65.455933,286.037415 71.902695,286.037415 79.300186,286.037415 
z"/>
<path fill="#3B57A6" opacity="1.000000" stroke="none" 
	d="
M127.227112,433.367188 
	C131.120651,426.427185 135.410492,419.963867 139.312546,413.274323 
	C160.880127,376.299805 182.379166,339.285217 203.833115,302.244659 
	C207.404175,296.079163 210.637909,289.718231 214.458221,283.135437 
	C223.454926,284.758545 231.934235,287.559418 240.607086,288.428131 
	C253.909149,289.760468 266.769257,287.214508 278.609131,280.471741 
	C302.328400,266.963623 306.772461,233.680542 285.798309,216.121384 
	C295.568329,216.091400 305.338348,216.061401 315.674622,216.486023 
	C316.240845,239.865540 316.240845,262.790466 316.240845,285.697937 
	C324.165680,285.697937 331.400482,285.697937 338.972015,285.697937 
	C338.972015,262.569275 338.972015,239.780792 339.432190,216.991745 
	C343.263306,216.990234 346.634308,216.989319 350.245361,217.264587 
	C352.905853,224.423950 355.341187,231.301910 357.743011,238.191544 
	C361.095978,247.809555 361.088287,247.647324 371.258911,247.831879 
	C374.686462,247.894073 376.157043,246.817627 377.225708,243.577377 
	C380.179260,234.621994 383.559479,225.807327 387.248840,216.960388 
	C391.252747,217.029633 394.778809,217.075531 398.373596,217.579086 
	C398.442322,240.586868 398.442322,263.137024 398.442322,285.659027 
	C406.234436,285.659027 413.613312,285.659027 421.367706,285.659027 
	C421.367706,262.509338 421.367706,239.739548 421.367706,216.969772 
	C448.006348,217.329865 474.644989,217.689957 501.768616,218.086639 
	C491.834259,236.263031 481.466736,254.432846 470.985809,272.537018 
	C440.601074,325.021759 410.164368,377.476440 379.779785,429.961273 
	C378.413666,432.320984 377.236206,433.991272 373.865723,433.985931 
	C292.221649,433.856323 210.577347,433.883942 128.933090,433.876801 
	C128.436859,433.876770 127.940636,433.787140 127.227112,433.367188 
z"/>
<path fill="#FCFCFD" opacity="1.000000" stroke="none" 
	d="
M421.284729,216.509247 
	C421.367706,239.739548 421.367706,262.509338 421.367706,285.659027 
	C413.613312,285.659027 406.234436,285.659027 398.442322,285.659027 
	C398.442322,263.137024 398.442322,240.586868 398.550140,217.204834 
	C399.539154,202.123856 400.420380,187.874786 401.301575,173.625717 
	C400.925995,173.584000 400.550385,173.542267 400.174774,173.500549 
	C395.706848,187.979385 391.238922,202.458206 386.770996,216.937042 
	C383.559479,225.807327 380.179260,234.621994 377.225708,243.577377 
	C376.157043,246.817627 374.686462,247.894073 371.258911,247.831879 
	C361.088287,247.647324 361.095978,247.809555 357.743011,238.191544 
	C355.341187,231.301910 352.905853,224.423950 350.252991,216.878174 
	C345.458771,201.483658 340.897034,186.751724 336.335266,172.019806 
	C335.473511,174.576111 335.865234,176.870422 336.049072,179.181244 
	C337.051636,191.782684 338.003021,204.388214 338.972015,216.992325 
	C338.972015,239.780792 338.972015,262.569275 338.972015,285.697937 
	C331.400482,285.697937 324.165680,285.697937 316.240845,285.697937 
	C316.240845,262.790466 316.240845,239.865540 316.146515,216.481842 
	C316.127960,193.201141 316.204254,170.379211 316.278687,147.557281 
	C316.285126,145.585800 316.279510,143.614288 316.279510,141.007263 
	C325.550629,141.007263 334.481659,140.902298 343.402130,141.160660 
	C344.352142,141.188171 345.688446,143.204391 346.091034,144.527618 
	C353.105896,167.582962 360.002747,190.674240 366.925140,213.757751 
	C367.401398,215.345947 367.876160,216.934601 368.640961,219.489822 
	C376.656097,192.957520 384.409607,167.291245 392.249969,141.337479 
	C401.735687,141.337479 411.136780,141.337479 421.201752,141.337479 
	C421.201752,166.211288 421.201752,191.130005 421.284729,216.509247 
z"/>
<path fill="#FDFDFE" opacity="1.000000" stroke="none" 
	d="
M285.477478,216.016327 
	C306.772461,233.680542 302.328400,266.963623 278.609131,280.471741 
	C266.769257,287.214508 253.909149,289.760468 240.607086,288.428131 
	C231.934235,287.559418 223.454926,284.758545 214.516190,282.756836 
	C206.392288,278.055359 198.641129,273.420258 190.267029,268.412689 
	C195.980606,261.636871 200.830780,255.884964 205.348328,250.527512 
	C212.497406,254.485550 219.361206,258.285645 226.842682,262.377502 
	C238.545090,266.543060 249.783096,267.799500 261.060669,263.793121 
	C267.402374,261.540222 271.830017,257.174530 272.469360,250.072098 
	C273.108582,242.970840 270.353119,237.250717 264.081482,233.860901 
	C258.581421,230.888123 252.705109,228.611572 246.994965,226.027512 
	C240.331009,223.055374 233.630005,220.162735 227.017136,217.080963 
	C223.112625,215.261353 219.144852,213.452957 215.552536,211.107971 
	C190.496002,194.751511 191.040771,160.904556 217.242126,146.320221 
	C240.775848,133.220734 264.245148,136.163162 286.649841,150.284485 
	C287.912964,151.080627 289.070496,152.044266 290.600159,153.044342 
	C292.021667,154.348618 293.120178,155.538483 294.444366,156.972763 
	C290.410217,161.997604 286.523773,166.938812 282.472321,171.740784 
	C282.032715,172.261841 280.639160,171.978073 279.205872,171.683319 
	C277.354309,170.364655 276.023438,169.367035 274.609467,168.505844 
	C262.876648,161.359894 250.229568,159.012268 236.861710,162.162704 
	C227.683472,164.325760 222.977264,171.058273 223.840775,179.501587 
	C224.475555,185.708496 228.632187,189.373734 233.685898,191.725159 
	C242.980484,196.049805 252.538498,199.808273 261.986725,203.802734 
	C269.710022,207.838913 277.433319,211.875092 285.477478,216.016327 
z"/>
<path fill="#253E99" opacity="1.000000" stroke="none" 
	d="
M261.999695,203.441315 
	C252.538498,199.808273 242.980484,196.049805 233.685898,191.725159 
	C228.632187,189.373734 224.475555,185.708496 223.840775,179.501587 
	C222.977264,171.058273 227.683472,164.325760 236.861710,162.162704 
	C250.229568,159.012268 262.876648,161.359894 274.609467,168.505844 
	C276.023438,169.367035 277.354309,170.364655 278.880493,171.596680 
	C274.003540,180.790604 268.949249,189.675385 263.957123,198.594955 
	C263.165375,200.009583 262.653748,201.580978 261.999695,203.441315 
z"/>
<path fill="#E5E5E5" opacity="1.000000" stroke="none" 
	d="
M12.458740,128.004944 
	C11.993587,118.315804 11.998173,108.622459 12.006589,98.459328 
	C12.010420,97.989548 11.998837,98.001137 12.463810,98.001999 
	C22.622931,98.005531 32.317081,98.008194 42.006229,98.006081 
	C42.001228,98.001305 41.989868,97.989548 41.989868,97.989548 
	C41.989868,108.321495 41.989868,118.653442 41.989868,128.000748 
	C31.846033,128.000748 22.387257,128.000748 12.458740,128.004944 
z"/>
<path fill="#E5E5E5" opacity="1.000000" stroke="none" 
	d="
M491.541290,307.995026 
	C492.006439,317.684204 492.001862,327.377533 491.993469,337.540649 
	C491.989655,338.010406 492.001129,337.998871 491.536163,337.998047 
	C481.377045,337.994507 471.682922,337.991852 461.993774,337.993958 
	C461.998779,337.998718 462.010040,338.010437 462.010040,338.010437 
	C462.006958,330.893311 462.136414,323.772980 461.966858,316.659851 
	C461.760406,308.000854 461.651550,308.003571 470.713226,308.002411 
	C477.499329,308.001526 484.285461,308.000275 491.541290,307.995026 
z"/>
<path fill="#E5E5E5" opacity="1.000000" stroke="none" 
	d="
M491.995361,67.995369 
	C491.994019,77.682983 491.998444,87.376419 492.006958,97.539505 
	C482.316254,98.004318 472.621521,97.999496 462.463379,97.997269 
	C462.000000,97.999870 462.010315,98.012093 462.010315,98.012093 
	C462.008636,88.317535 462.006958,78.622986 462.002045,68.464844 
	C461.998810,68.001259 461.989136,68.010880 462.458862,68.006897 
	C472.622650,68.005569 482.316772,68.008224 492.010864,68.010880 
	C492.010864,68.010880 492.001099,68.001190 491.995361,67.995369 
z"/>
<path fill="#E5E5E5" opacity="1.000000" stroke="none" 
	d="
M462.004639,427.995361 
	C452.316986,427.994019 442.623566,427.998444 432.460510,428.006958 
	C431.995605,418.316589 432.000366,408.622192 432.001984,398.464569 
	C431.998840,398.001373 431.988251,398.010712 432.458191,398.006775 
	C442.622345,398.005493 452.316620,398.008179 462.005432,398.005432 
	C462.000000,398.000000 461.989136,397.989136 461.993103,398.458862 
	C461.994415,408.622650 461.991760,418.316772 461.989136,428.010864 
	C461.989136,428.010864 461.998871,428.001129 462.004639,427.995361 
z"/>
<path fill="#E5E5E5" opacity="1.000000" stroke="none" 
	d="
M12.004602,368.004669 
	C12.007825,358.316681 12.005267,348.622894 12.006546,338.459351 
	C12.010383,337.989563 11.998821,338.001099 12.463800,338.001953 
	C22.622135,337.998352 32.315491,337.993866 42.008846,337.989380 
	C42.004143,347.683441 41.999439,357.377533 41.997993,367.535217 
	C42.001255,367.998810 42.010860,367.989136 41.541035,367.993164 
	C31.377182,367.994476 21.683157,367.991821 11.989130,367.989136 
	C11.989130,367.989136 11.998821,367.998901 12.004602,368.004669 
z"/>
<path fill="#E5E5E5" opacity="1.000000" stroke="none" 
	d="
M41.995529,368.004486 
	C50.601337,368.007874 59.215530,368.128143 67.823044,367.940979 
	C71.110504,367.869507 72.126831,369.011017 72.056770,372.231995 
	C71.876747,380.508423 71.995453,388.791321 71.998047,397.535156 
	C72.001343,397.998627 72.011032,397.989136 71.541191,397.993134 
	C61.377281,397.994476 51.683208,397.991791 41.994568,397.994568 
	C42.000000,398.000000 42.010860,398.010864 42.006889,397.541138 
	C42.005562,387.377350 42.008209,377.683228 42.010860,367.989136 
	C42.010860,367.989136 42.001255,367.998810 41.995529,368.004486 
z"/>
<path fill="#E5E5E5" opacity="1.000000" stroke="none" 
	d="
M41.995346,8.004621 
	C51.682976,8.005978 61.376415,8.001569 71.539505,7.993081 
	C72.004379,17.683441 71.999611,27.377880 71.998016,37.535446 
	C72.001198,37.998573 72.011856,37.989281 71.541931,37.993240 
	C61.377712,37.994511 51.683422,37.991821 41.993996,37.993996 
	C41.998856,37.998852 42.010464,38.010387 42.007080,37.541092 
	C42.006088,27.377575 42.008476,17.683352 42.010864,7.989129 
	C42.010864,7.989129 42.001152,7.998855 41.995346,8.004621 
z"/>
<path fill="#E5E5E5" opacity="1.000000" stroke="none" 
	d="
M462.004517,67.995560 
	C453.398651,67.992157 444.784454,67.871956 436.176910,68.059067 
	C432.889557,68.130531 431.873169,66.989067 431.943268,63.768002 
	C432.123352,55.491566 432.004578,47.208633 432.001953,38.464859 
	C431.998688,38.001427 431.988861,38.010838 432.458740,38.006828 
	C442.622681,38.005497 452.316772,38.008179 462.005981,38.006020 
	C462.001099,38.001175 461.989563,37.989613 461.992920,38.458908 
	C461.993927,48.622429 461.991547,58.316654 461.989136,68.010880 
	C461.989136,68.010880 461.998810,68.001259 462.004517,67.995560 
z"/>
<path fill="#FFFFFF" opacity="1.000000" stroke="none" 
	d="
M42.003967,337.995300 
	C32.315491,337.993866 22.622135,337.998352 12.458955,338.006836 
	C11.993652,328.316956 11.998175,318.623047 12.006530,308.459351 
	C12.010364,307.989594 11.998808,308.001129 12.463780,308.001648 
	C22.289068,308.050201 31.649385,308.098236 41.009701,308.146271 
	C41.108540,308.414337 41.273956,308.631744 41.724083,309.164246 
	C41.956383,309.712646 41.970547,309.895325 41.984707,310.078003 
	C41.984707,310.078003 41.992390,310.535919 41.996468,311.234253 
	C41.996727,320.624817 41.992908,329.317017 41.989090,338.009216 
	C41.989094,338.009216 41.999088,338.001221 42.003967,337.995300 
z"/>
<path fill="#E5E5E5" opacity="1.000000" stroke="none" 
	d="
M102.004921,427.547363 
	C92.315819,428.006348 82.622482,428.001709 72.459366,427.993286 
	C71.989586,427.989471 72.001167,428.001129 72.002098,427.536163 
	C72.005699,417.377167 72.008362,407.683167 72.011032,397.989136 
	C72.011032,397.989136 72.001343,397.998627 71.995605,398.004456 
	C77.803329,398.007904 83.618652,398.093872 89.429611,397.971924 
	C93.255211,397.891602 95.681488,399.520386 97.081650,403.048096 
	C97.652023,404.485168 98.579720,405.799774 99.461746,407.090179 
	C101.862190,410.602081 103.527451,414.059082 102.139786,418.655182 
	C101.358513,421.242828 102.000084,424.260010 102.004921,427.547363 
z"/>
<path fill="#E5E5E5" opacity="1.000000" stroke="none" 
	d="
M401.995117,8.450311 
	C411.684174,7.993669 421.377472,7.998328 431.540588,8.006789 
	C432.010376,8.010592 431.998840,7.998816 431.997864,8.463809 
	C431.994202,18.622814 431.991547,28.316826 431.988861,38.010838 
	C431.988861,38.010838 431.998688,38.001427 432.004395,37.995564 
	C426.382477,37.991779 420.723969,38.334568 415.142334,37.828976 
	C412.896118,37.625511 410.411499,35.951611 408.772736,34.240677 
	C406.950745,32.338482 406.306763,29.337189 404.558105,27.330019 
	C399.615326,21.656654 402.806122,15.042093 401.995117,8.450311 
z"/>
<path fill="#E5E5E5" opacity="1.000000" stroke="none" 
	d="
M71.989799,67.989136 
	C74.172638,77.846642 66.350082,83.960518 63.080162,91.776329 
	C61.091309,96.530113 58.247303,99.488983 52.343842,98.118462 
	C49.355865,97.424782 46.074253,97.995934 42.457634,97.992386 
	C41.989868,97.989548 42.001228,98.001305 42.002254,97.536255 
	C42.005932,87.377205 42.008583,77.683189 42.005615,67.994591 
	C42.000000,68.000000 41.989185,68.011230 42.458900,68.007301 
	C52.622982,68.005920 62.317348,68.008461 72.006470,68.006195 
	C72.001236,68.001373 71.989799,67.989136 71.989799,67.989136 
z"/>
<path fill="#E5E5E5" opacity="1.000000" stroke="none" 
	d="
M432.010132,368.011261 
	C430.161194,360.290131 436.122681,355.396423 438.929077,349.421204 
	C441.162231,344.666443 444.262024,340.318665 446.604584,336.411438 
	C451.189056,339.500732 456.355072,337.346161 461.543518,338.007629 
	C462.010040,338.010437 461.998779,337.998718 461.997772,338.463776 
	C461.994232,348.622650 461.991699,358.316467 461.995178,368.004578 
	C462.001129,367.998871 462.010803,367.988770 461.541077,367.992676 
	C451.377075,367.994110 441.682831,367.991638 431.993744,367.993958 
	C431.998932,367.998749 432.010132,368.011261 432.010132,368.011261 
z"/>
<path fill="#E5E5E5" opacity="1.000000" stroke="none" 
	d="
M41.002983,307.825562 
	C31.649385,308.098236 22.289068,308.050201 12.458924,308.006531 
	C11.991982,298.317291 11.994867,288.623688 11.993391,278.460449 
	C15.596903,277.591766 19.204777,277.192749 22.906202,276.396912 
	C22.999756,276.000122 23.007650,275.990234 23.007645,275.990234 
	C29.003847,286.495117 35.000053,296.999969 41.002983,307.825562 
z"/>
<path fill="#E5E5E5" opacity="1.000000" stroke="none" 
	d="
M491.541229,127.995300 
	C492.008026,137.683823 492.005096,147.376846 492.006561,157.539520 
	C488.735596,158.409622 485.460236,158.810059 482.092529,159.605164 
	C482.000214,159.999817 481.992310,160.009766 481.992310,160.009766 
	C475.899994,149.755722 469.807678,139.501694 462.973969,127.999794 
	C473.321655,127.999794 482.196594,127.999794 491.541229,127.995300 
z"/>
<path fill="#E4E4E4" opacity="1.000000" stroke="none" 
	d="
M71.995636,38.004787 
	C79.049362,38.011002 86.108650,38.011002 94.106415,38.011002 
	C89.579765,45.846584 85.481339,52.937840 81.386482,60.031158 
	C80.314621,61.887897 79.578896,64.091965 78.091515,65.510025 
	C76.754250,66.784966 74.597481,67.200325 72.395996,67.991989 
	C71.989799,67.989136 72.001236,68.001373 72.002609,67.536362 
	C72.006599,57.377327 72.009224,47.683304 72.011856,37.989281 
	C72.011856,37.989281 72.001198,37.998573 71.995636,38.004787 
z"/>
<path fill="#E4E4E4" opacity="1.000000" stroke="none" 
	d="
M432.004395,397.995239 
	C425.225800,397.989075 418.441620,397.989075 410.996735,397.989075 
	C416.694977,387.937042 422.308655,377.946625 428.103973,368.062683 
	C428.402069,367.554230 430.256073,367.958099 431.697937,367.974243 
	C432.010132,368.011261 431.998932,367.998749 431.997620,368.463776 
	C431.993622,378.622772 431.990936,388.316742 431.988251,398.010712 
	C431.988251,398.010712 431.998840,398.001373 432.004395,397.995239 
z"/>
<path fill="#E4E4E4" opacity="1.000000" stroke="none" 
	d="
M42.457649,338.004456 
	C41.992908,329.317017 41.996727,320.624817 41.999187,311.463257 
	C43.867100,313.318634 45.999992,315.480835 47.553734,318.000153 
	C51.436108,324.295319 55.055557,330.752625 59.278645,337.999695 
	C53.094570,337.999695 48.010387,337.999695 42.457649,338.004456 
z"/>
<path fill="#E4E4E4" opacity="1.000000" stroke="none" 
	d="
M461.993958,97.994751 
	C461.987915,106.162987 461.987915,114.336342 461.987915,122.509689 
	C461.424591,122.670975 460.861298,122.832260 460.297974,122.993546 
	C455.595459,114.943062 450.892914,106.892586 445.702179,98.006310 
	C451.586151,98.006310 456.330597,98.006310 461.542664,98.009201 
	C462.010315,98.012093 462.000000,97.999870 461.993958,97.994751 
z"/>
<path fill="#E4E4E4" opacity="1.000000" stroke="none" 
	d="
M11.994738,158.006073 
	C15.768874,158.012436 19.548012,158.012436 24.589449,158.012436 
	C20.786531,164.407181 17.508266,169.919708 14.230000,175.432236 
	C13.488918,175.242233 12.747837,175.052246 12.006755,174.862259 
	C12.006755,169.550766 12.006755,164.239288 12.009602,158.458771 
	C12.012448,157.989746 11.999740,157.999725 11.994738,158.006073 
z"/>
<path fill="#E4E4E4" opacity="1.000000" stroke="none" 
	d="
M492.005127,277.993896 
	C488.615234,277.987793 485.220184,277.987793 480.250397,277.987793 
	C484.195404,271.453827 487.325867,266.269012 490.456329,261.084167 
	C490.968689,261.217590 491.481049,261.350983 491.993408,261.484406 
	C491.993408,266.680420 491.993408,271.876465 491.990601,277.541382 
	C491.987793,278.010254 492.000000,278.000000 492.005127,277.993896 
z"/>
<path fill="#E3E3E3" opacity="1.000000" stroke="none" 
	d="
M101.994781,8.006411 
	C104.757339,8.013196 107.524704,8.013196 111.108803,8.013196 
	C108.233566,13.267768 105.736137,17.831881 103.238708,22.395994 
	C102.828392,22.344957 102.418083,22.293922 102.007767,22.242887 
	C102.007767,17.802925 102.007767,13.362962 102.010475,8.456485 
	C102.013184,7.989971 101.999596,7.999624 101.994781,8.006411 
z"/>
<path fill="#E3E3E3" opacity="1.000000" stroke="none" 
	d="
M402.005005,427.993469 
	C399.599213,427.879181 397.188385,427.771423 393.760071,427.618195 
	C396.322266,423.192017 398.380524,419.636475 400.438751,416.080902 
	C400.956635,416.201538 401.474487,416.322144 401.992340,416.442780 
	C401.992340,419.991852 401.992340,423.540894 401.989624,427.549988 
	C401.986908,428.010040 402.000000,428.000000 402.005005,427.993469 
z"/>
<path fill="#E4E4E4" opacity="1.000000" stroke="none" 
	d="
M12.007254,179.005600 
	C11.901412,179.034790 11.795569,179.063965 11.844809,179.046509 
	C11.999890,178.999878 12.007254,179.005600 12.007254,179.005600 
z"/>
<path fill="#E5E5E5" opacity="1.000000" stroke="none" 
	d="
M395.006989,9.994322 
	C395.140289,10.144338 395.267029,10.299665 395.393738,10.454995 
	C395.298096,10.405787 395.202454,10.356579 395.048645,10.159792 
	C394.990448,10.012215 395.000397,9.999634 395.006989,9.994322 
z"/>
<path fill="#E4E4E4" opacity="1.000000" stroke="none" 
	d="
M445.458435,96.447632 
	C445.521484,96.406860 445.395355,96.488396 445.458435,96.447632 
z"/>
<path fill="#E5E5E5" opacity="1.000000" stroke="none" 
	d="
M482.005371,159.995605 
	C482.137329,160.145569 482.264099,160.299744 482.390900,160.453903 
	C482.296295,160.404099 482.201721,160.354309 482.049713,160.157135 
	C481.992310,160.009766 482.000214,159.999817 482.005371,159.995605 
z"/>
<path fill="#E4E4E4" opacity="1.000000" stroke="none" 
	d="
M13.430103,176.421280 
	C13.510697,176.365784 13.542784,176.581146 13.542784,176.581146 
	C13.542784,176.581146 13.349508,176.476776 13.430103,176.421280 
z"/>
<path fill="#E4E4E4" opacity="1.000000" stroke="none" 
	d="
M11.996690,178.995911 
	C12.094581,178.957001 12.195673,178.922058 12.152009,178.946350 
	C12.007254,179.005600 11.999890,178.999878 11.996690,178.995911 
z"/>
<path fill="#E4E4E4" opacity="1.000000" stroke="none" 
	d="
M59.445881,339.533356 
	C59.407532,339.469025 59.484230,339.597687 59.445881,339.533356 
z"/>
<path fill="#E5E5E5" opacity="1.000000" stroke="none" 
	d="
M109.992950,426.005676 
	C109.859673,425.855682 109.732956,425.700317 109.606247,425.544983 
	C109.701904,425.594208 109.797554,425.643433 109.951401,425.840210 
	C110.009590,425.987793 109.999519,426.000366 109.992950,426.005676 
z"/>
<path fill="#E4E4E4" opacity="1.000000" stroke="none" 
	d="
M409.581787,400.451904 
	C409.634827,400.528992 409.426483,400.556122 409.426483,400.556122 
	C409.426483,400.556122 409.528778,400.374847 409.581787,400.451904 
z"/>
<path fill="#E4E4E4" opacity="1.000000" stroke="none" 
	d="
M496.560699,250.576355 
	C496.483063,250.628693 496.453918,250.422623 496.453918,250.422623 
	C496.453918,250.422623 496.638336,250.524033 496.560699,250.576355 
z"/>
<path fill="#E5E5E5" opacity="1.000000" stroke="none" 
	d="
M22.994526,276.004333 
	C22.862583,275.854370 22.735868,275.700195 22.609152,275.545990 
	C22.703743,275.595795 22.798332,275.645630 22.950287,275.842834 
	C23.007650,275.990234 22.999756,276.000122 22.994526,276.004333 
z"/>
<path fill="#E4E4E4" opacity="1.000000" stroke="none" 
	d="
M42.175819,309.969482 
	C41.970547,309.895325 41.956383,309.712646 41.909687,309.256653 
	C42.040413,309.275879 42.203671,309.568390 42.175819,309.969482 
z"/>
<path fill="#FFFFFF" opacity="1.000000" stroke="none" 
	d="
M461.989197,368.010315 
	C461.991699,358.316467 461.994232,348.622650 461.992767,338.459015 
	C471.682922,337.991852 481.377045,337.994507 491.541016,337.993164 
	C492.006317,347.683044 492.001770,357.376953 491.993408,367.540649 
	C491.989624,368.010406 492.001129,367.998871 491.536163,367.998047 
	C481.377197,368.001556 471.683197,368.005920 461.989197,368.010315 
z"/>
<path fill="#FFFFFF" opacity="1.000000" stroke="none" 
	d="
M41.541142,7.993108 
	C42.008476,17.683352 42.006088,27.377575 41.537300,37.537254 
	C31.376976,37.998188 21.683054,37.993664 11.989130,37.989136 
	C11.989130,37.989136 11.998737,37.998734 12.004551,38.004581 
	C12.005968,28.316545 12.001572,18.622663 11.993153,8.458954 
	C21.683226,7.991782 31.377323,7.994434 41.541142,7.993108 
z"/>
<path fill="#E5E5E5" opacity="1.000000" stroke="none" 
	d="
M461.995178,368.004578 
	C471.683197,368.005920 481.377197,368.001556 491.541016,367.993164 
	C492.006348,377.683044 492.001801,387.376953 491.993439,397.540649 
	C491.989624,398.010406 492.001129,397.998871 491.536163,397.998016 
	C481.377167,397.994476 471.683167,397.991791 461.989136,397.989136 
	C461.989136,397.989136 462.000000,398.000000 462.001404,397.535583 
	C462.005493,387.377045 462.008148,377.682922 462.010803,367.988770 
	C462.010803,367.988770 462.001129,367.998871 461.995178,368.004578 
z"/>
<path fill="#E5E5E5" opacity="1.000000" stroke="none" 
	d="
M42.004646,427.995361 
	C32.316566,427.994019 22.622673,427.998413 12.458955,428.006836 
	C11.993657,418.316956 11.998183,408.623047 12.006546,398.459351 
	C12.010383,397.989563 11.998821,398.001099 12.463800,398.001953 
	C22.622807,398.005493 32.316833,398.008179 42.010860,398.010864 
	C42.010860,398.010864 42.000000,398.000000 41.998589,398.464417 
	C41.994499,408.622833 41.991817,418.316833 41.989136,428.010864 
	C41.989140,428.010864 41.998833,428.001099 42.004646,427.995361 
z"/>
<path fill="#FFFFFF" opacity="1.000000" stroke="none" 
	d="
M42.006889,397.541138 
	C32.316833,398.008179 22.622807,398.005493 12.458955,398.006836 
	C11.991812,388.316833 11.994493,378.622833 11.993153,368.458984 
	C21.683157,367.991821 31.377182,367.994476 41.541035,367.993164 
	C42.008209,377.683228 42.005562,387.377350 42.006889,397.541138 
z"/>
<path fill="#FFFFFF" opacity="1.000000" stroke="none" 
	d="
M462.458862,68.006897 
	C461.991547,58.316654 461.993927,48.622429 462.462708,38.462746 
	C472.623047,38.001812 482.316956,38.006336 492.010864,38.010860 
	C492.010864,38.010860 492.001251,38.001266 491.995453,37.995419 
	C491.994049,47.683456 491.998444,57.377342 492.006836,67.541054 
	C482.316772,68.008224 472.622650,68.005569 462.458862,68.006897 
z"/>
<path fill="#FFFFFF" opacity="1.000000" stroke="none" 
	d="
M461.993103,398.458862 
	C471.683167,397.991791 481.377167,397.994476 491.541016,397.993164 
	C492.008179,407.683167 492.005493,417.377167 492.006836,427.541016 
	C482.316833,428.008209 472.622833,428.005524 462.458954,428.006836 
	C461.991760,418.316772 461.994415,408.622650 461.993103,398.458862 
z"/>
<path fill="#E5E5E5" opacity="1.000000" stroke="none" 
	d="
M11.993109,38.458858 
	C21.683054,37.993664 31.376976,37.998188 41.540680,38.006550 
	C42.010464,38.010387 41.998856,37.998852 41.998020,38.463821 
	C41.994518,48.622936 41.991852,58.317081 41.989185,68.011230 
	C41.989185,68.011230 42.000000,68.000000 41.535755,67.998589 
	C31.377384,67.994492 21.683256,67.991806 11.989130,67.989120 
	C11.989130,67.989120 11.998722,67.998764 12.004543,68.004608 
	C12.005939,58.316490 12.001513,48.622536 11.993109,38.458858 
z"/>
<path fill="#E5E5E5" opacity="1.000000" stroke="none" 
	d="
M492.006897,37.541138 
	C482.316956,38.006336 472.623047,38.001812 462.459351,37.993450 
	C461.989563,37.989613 462.001099,38.001175 462.001953,37.536194 
	C462.005493,27.377184 462.008179,17.683157 462.010864,7.989129 
	C462.010864,7.989129 462.001251,7.998734 461.995422,8.004549 
	C471.683472,8.005967 481.377319,8.001570 491.541016,7.993151 
	C492.008209,17.683226 492.005554,27.377323 492.006897,37.541138 
z"/>
<path fill="#FFFFFF" opacity="1.000000" stroke="none" 
	d="
M11.993110,68.458839 
	C21.683256,67.991806 31.377384,67.994492 41.541374,67.993179 
	C42.008583,77.683189 42.005932,87.377205 42.007256,97.541031 
	C32.317081,98.008194 22.622931,98.005531 12.458958,98.006889 
	C11.991785,88.316795 11.994437,78.622681 11.993110,68.458839 
z"/>
<path fill="#FFFFFF" opacity="1.000000" stroke="none" 
	d="
M461.541138,7.993107 
	C462.008179,17.683157 462.005493,27.377184 462.006836,37.541039 
	C452.316772,38.008179 442.622681,38.005497 432.458740,38.006828 
	C431.991547,28.316826 431.994202,18.622814 431.992859,8.458982 
	C441.683044,7.991802 451.377258,7.994444 461.541138,7.993107 
z"/>
<path fill="#FFFFFF" opacity="1.000000" stroke="none" 
	d="
M42.458862,428.006897 
	C41.991817,418.316833 41.994499,408.622833 41.993156,398.458954 
	C51.683208,397.991791 61.377281,397.994476 71.541191,397.993134 
	C72.008362,407.683167 72.005699,417.377167 72.007034,427.541016 
	C62.316883,428.008209 52.622734,428.005554 42.458862,428.006897 
z"/>
<path fill="#FDFDFE" opacity="1.000000" stroke="none" 
	d="
M78.824821,286.037415 
	C71.902695,286.037415 65.455933,286.037415 58.315201,286.037415 
	C74.140518,237.391983 89.758011,189.385376 105.499290,140.998276 
	C115.021118,140.998276 124.498215,140.857712 133.959869,141.175934 
	C135.144577,141.215790 136.796371,143.497589 137.307388,145.045715 
	C146.633774,173.299515 155.820175,201.599518 165.033066,229.890793 
	C171.048264,248.362457 177.058228,266.835815 183.304733,286.027985 
	C174.411377,286.027985 166.007858,286.136169 157.615250,285.882751 
	C156.633087,285.853058 155.217773,283.976410 154.838135,282.706421 
	C151.321960,270.944000 147.989197,259.126709 144.555801,247.160339 
	C128.447037,247.160339 112.495117,247.160339 96.154427,247.160339 
	C92.431313,259.989166 88.690430,272.879211 84.871727,286.037415 
	C82.928604,286.037415 81.114395,286.037415 78.824821,286.037415 
M123.531494,171.988663 
	C122.604568,168.475082 121.677643,164.961517 120.406487,160.143112 
	C114.202415,182.849319 108.337234,204.315231 102.422722,225.961700 
	C114.688156,225.961700 126.356972,225.961700 138.443802,225.961700 
	C133.470016,207.906708 128.629593,190.335892 123.531494,171.988663 
z"/>
<path fill="#3C58A7" opacity="1.000000" stroke="none" 
	d="
M246.962982,226.386154 
	C252.705109,228.611572 258.581421,230.888123 264.081482,233.860901 
	C270.353119,237.250717 273.108582,242.970840 272.469360,250.072098 
	C271.830017,257.174530 267.402374,261.540222 261.060669,263.793121 
	C249.783096,267.799500 238.545090,266.543060 227.213348,262.403320 
	C232.863831,251.992599 238.780716,241.859055 244.638367,231.691376 
	C245.542023,230.122833 246.173599,228.397583 246.962982,226.386154 
z"/>
<path fill="#2F3884" opacity="1.000000" stroke="none" 
	d="
M387.248840,216.960388 
	C391.238922,202.458206 395.706848,187.979385 400.174774,173.500549 
	C400.550385,173.542267 400.925995,173.584000 401.301575,173.625717 
	C400.420380,187.874786 399.539154,202.123856 398.481415,216.747192 
	C394.778809,217.075531 391.252747,217.029633 387.248840,216.960388 
z"/>
<path fill="#313A86" opacity="1.000000" stroke="none" 
	d="
M339.432190,216.991745 
	C338.003021,204.388214 337.051636,191.782684 336.049072,179.181244 
	C335.865234,176.870422 335.473511,174.576111 336.335266,172.019806 
	C340.897034,186.751724 345.458771,201.483658 350.012878,216.601990 
	C346.634308,216.989319 343.263306,216.990234 339.432190,216.991745 
z"/>
<path fill="#FFFFFF" opacity="1.000000" stroke="none" 
	d="
M461.541077,367.992676 
	C462.008148,377.682922 462.005493,387.377045 462.006836,397.541016 
	C452.316620,398.008179 442.622345,398.005493 432.458191,398.006775 
	C431.990936,388.316742 431.993622,378.622772 431.992432,368.458984 
	C441.682831,367.991638 451.377075,367.994110 461.541077,367.992676 
z"/>
<path fill="#FFFFFF" opacity="1.000000" stroke="none" 
	d="
M42.458900,68.007301 
	C41.991852,58.317081 41.994518,48.622936 41.993160,38.458961 
	C51.683422,37.991821 61.377712,37.994511 71.541924,37.993240 
	C72.009224,47.683304 72.006599,57.377327 72.007843,67.541183 
	C62.317348,68.008461 52.622982,68.005920 42.458900,68.007301 
z"/>
<path fill="#263F9A" opacity="1.000000" stroke="none" 
	d="
M123.660339,172.376862 
	C128.629593,190.335892 133.470016,207.906708 138.443802,225.961700 
	C126.356972,225.961700 114.688156,225.961700 102.422722,225.961700 
	C108.337234,204.315231 114.202415,182.849319 120.406487,160.143112 
	C121.677643,164.961517 122.604568,168.475082 123.660339,172.376862 
z"/>
</svg>
